<?xml version="1.0" standalone="no"?>
<!DOCTYPE svg PUBLIC "-//W3C//DTD SVG 20010904//EN"
 "http://www.w3.org/TR/2001/REC-SVG-20010904/DTD/svg10.dtd">
<svg version="1.0" xmlns="http://www.w3.org/2000/svg"
 width="215.000000pt" height="234.000000pt" viewBox="0 0 215.000000 234.000000"
 preserveAspectRatio="xMidYMid meet">

<g transform="translate(0.000000,234.000000) scale(0.100000,-0.100000)"
fill="#000000" stroke="none">
<path d="M1004 2330 c-107 -22 -207 -101 -253 -199 -24 -51 -26 -66 -25 -176
1 -74 7 -141 17 -175 8 -30 14 -56 13 -57 -1 -1 -31 19 -66 44 -36 25 -98 61
-139 81 -68 33 -83 36 -157 35 -70 0 -91 -4 -145 -30 -78 -37 -140 -98 -177
-172 -24 -50 -27 -67 -27 -156 0 -92 2 -105 31 -160 l31 -60 -33 -45 c-58 -79
-83 -185 -64 -277 25 -120 92 -208 198 -260 51 -25 68 -28 157 -28 93 0 105 3
182 37 95 42 209 109 290 171 31 23 64 48 75 56 15 11 8 -10 -26 -77 -83 -165
-152 -355 -206 -572 -25 -98 -61 -282 -57 -287 2 -2 24 -7 49 -11 l45 -9 13
71 c31 180 89 390 155 561 49 127 133 300 142 291 4 -3 16 -45 29 -93 27 -104
82 -245 129 -328 52 -93 98 -140 173 -177 61 -30 74 -33 162 -33 81 0 103 4
150 26 125 58 209 192 210 334 0 39 2 41 59 67 252 117 280 470 49 622 -65 43
-134 62 -263 71 l-99 8 30 24 c91 76 167 162 197 223 28 57 32 74 32 150 0 72
-5 94 -28 145 -76 164 -257 250 -420 201 l-46 -14 -27 39 c-71 104 -233 166
-360 139z"/>
</g>
</svg>
