<?xml version="1.0" standalone="no"?>
<!DOCTYPE svg PUBLIC "-//W3C//DTD SVG 20010904//EN"
 "http://www.w3.org/TR/2001/REC-SVG-20010904/DTD/svg10.dtd">
<svg version="1.0" xmlns="http://www.w3.org/2000/svg"
 width="480.000000pt" height="402.000000pt" viewBox="0 0 480.000000 402.000000"
 preserveAspectRatio="xMidYMid meet">

<g transform="translate(0.000000,402.000000) scale(0.100000,-0.100000)"
fill="#000000" stroke="none">
<path d="M2320 3782 c-77 -10 -206 -61 -289 -114 -18 -11 -50 -25 -70 -29 -20
-4 -47 -10 -61 -14 -24 -6 -24 -6 -5 9 11 8 25 20 32 25 33 29 202 101 236
101 10 0 16 4 13 9 -6 9 -62 0 -110 -19 -18 -6 -33 -6 -49 1 -18 8 -42 4 -112
-20 -141 -46 -166 -57 -158 -66 5 -4 0 -5 -10 -2 -10 4 -16 3 -13 -2 8 -12
-38 -41 -66 -41 -13 0 -30 -5 -38 -11 -12 -9 -11 -10 8 -6 12 3 22 3 22 0 0
-8 -44 -42 -55 -42 -5 0 -1 6 9 14 11 8 16 15 12 15 -4 0 -22 -11 -39 -24 -18
-14 -45 -30 -62 -36 -23 -9 -26 -13 -15 -20 13 -8 12 -10 -2 -10 -10 0 -18 -5
-18 -11 0 -5 -5 -7 -12 -3 -6 4 -8 3 -5 -3 8 -13 -17 -36 -27 -25 -4 4 -6 1
-4 -7 2 -8 -6 -17 -17 -19 -28 -5 -44 -22 -21 -22 10 0 14 -5 11 -11 -4 -6
-13 -8 -20 -5 -7 2 -24 -8 -39 -23 -30 -31 -33 -43 -9 -34 11 4 14 3 9 -5 -4
-7 -15 -12 -25 -12 -17 0 -41 -18 -41 -31 0 -4 10 -5 23 -3 20 4 20 4 2 -5
-11 -4 -23 -7 -26 -5 -19 11 -192 -295 -209 -371 -1 -5 -10 -26 -20 -45 -14
-28 -64 -176 -76 -225 -66 -272 -78 -376 -79 -650 0 -244 10 -343 51 -532 74
-337 219 -625 412 -821 113 -114 236 -195 394 -258 68 -26 131 -58 140 -70 23
-28 97 -50 253 -74 156 -24 282 -25 436 -5 314 41 569 111 569 156 0 11 -5 19
-11 19 -6 0 48 57 119 128 133 131 206 226 286 371 31 56 44 91 41 105 -4 14
-3 17 3 8 22 -32 146 305 187 507 153 752 -19 1536 -433 1972 -67 71 -176 155
-247 192 -67 34 -193 69 -258 73 -37 1 -72 6 -79 10 -6 4 -14 2 -16 -4 -2 -7
-8 -10 -13 -7 -5 4 -16 2 -26 -3 -11 -7 -30 -4 -61 9 -57 25 -67 24 -19 -2 20
-11 37 -21 37 -24 0 -2 -18 -2 -41 0 -36 3 -39 2 -27 -12 11 -14 11 -15 -7 -6
-96 50 -93 49 -167 12 -10 -5 -19 -5 -23 1 -5 8 8 14 55 25 3 1 12 4 20 8 32
12 71 17 66 9 -3 -5 6 -7 19 -4 14 2 25 9 25 15 0 18 -130 0 -210 -28 -85 -31
-162 -72 -235 -126 -38 -29 -161 -79 -191 -79 -3 0 11 14 30 30 22 20 61 38
108 51 70 20 112 39 56 25 -80 -18 -83 -18 -73 -8 27 27 143 85 220 108 33 10
62 19 64 21 9 6 -5 9 -29 5z m-318 -52 c-12 -5 -25 -9 -28 -9 -4 0 -10 -5 -15
-12 -6 -10 -13 -10 -31 -2 l-23 11 25 10 c14 6 41 11 60 11 31 0 32 -1 12 -9z
m528 0 c11 -6 17 -17 14 -25 -5 -12 -10 -12 -27 -3 -21 10 -21 10 -7 -7 14
-17 14 -17 -17 -2 -18 10 -39 17 -48 17 -8 0 -15 4 -15 9 0 19 71 27 100 11z
m-72 -36 c19 -8 31 -18 27 -24 -5 -8 -15 -6 -32 5 -14 9 -27 14 -30 12 -2 -3
5 -11 17 -17 30 -16 19 -23 -15 -10 -25 9 -27 9 -15 -5 19 -23 10 -24 -39 -3
l-44 20 33 16 c18 9 28 18 21 20 -6 2 -23 -4 -37 -13 -14 -9 -33 -14 -42 -12
-12 3 -7 9 18 20 38 18 81 15 138 -9z m-564 -23 c-22 -14 -33 -15 -46 -7 -25
15 -22 23 10 34 17 6 34 6 46 0 17 -9 16 -11 -10 -27z m396 -13 c0 -6 -9 -8
-20 -5 -11 3 -18 2 -15 -2 7 -13 -56 -54 -67 -43 -6 6 7 20 38 40 45 30 64 33
64 10z m-460 -13 c10 -12 10 -15 -2 -15 -8 0 -19 3 -26 8 -8 4 -8 4 -2 -2 15
-15 12 -29 -6 -22 -9 4 -13 2 -8 -5 13 -21 -19 -29 -34 -8 -8 11 -12 21 -11
23 52 39 71 43 89 21z m533 -7 c30 -16 37 -23 25 -26 -22 -4 -99 29 -92 40 8
13 21 10 67 -14z m-41 -19 c30 -15 37 -23 28 -29 -8 -5 -23 -4 -34 2 -17 9
-19 8 -8 -3 30 -32 2 -38 -53 -12 l-35 17 27 23 c16 12 29 22 31 23 1 0 21 -9
44 -21z m-356 3 c-11 -18 -85 -63 -108 -66 -13 -1 -29 -5 -34 -9 -26 -16 -65
-27 -59 -16 15 24 90 69 115 69 14 0 30 4 36 9 5 5 18 11 29 14 11 3 21 5 23
6 2 0 1 -3 -2 -7z m-229 -41 c10 -16 8 -23 -13 -42 l-26 -24 -21 25 c-16 20
-19 21 -13 5 16 -40 18 -55 8 -55 -6 0 -18 10 -26 22 -15 21 -14 24 8 47 22
22 27 23 43 10 16 -12 17 -12 6 2 -7 9 -10 19 -6 22 12 12 28 7 40 -12z m476
-5 c57 -25 74 -40 58 -51 -16 -10 -93 34 -84 48 4 7 -4 4 -17 -6 -34 -24 -50
-31 -57 -24 -4 5 35 56 44 57 1 0 27 -11 56 -24z m-194 -43 c-36 -33 -167 -97
-178 -88 -7 7 73 85 88 86 9 0 39 9 66 19 70 25 70 24 24 -17z m-439 7 c-24
-15 -37 -11 -16 5 11 8 22 12 25 9 3 -3 -1 -9 -9 -14z m632 -6 c22 -11 27 -19
19 -27 -13 -13 -85 18 -76 33 9 14 21 13 57 -6z m-380 -32 c-20 -20 -50 -43
-66 -50 l-29 -13 34 40 c29 33 65 57 91 60 3 1 -10 -16 -30 -37z m283 29 c3
-5 1 -13 -5 -16 -15 -9 -43 3 -35 15 8 13 32 13 40 1z m60 -25 c24 -10 33 -20
29 -30 -5 -13 -10 -13 -42 2 -21 9 -39 17 -41 19 -4 2 9 23 15 23 3 0 20 -7
39 -14z m-635 0 c0 -3 -4 -8 -10 -11 -5 -3 -10 -1 -10 4 0 6 5 11 10 11 6 0
10 -2 10 -4z m91 -23 c14 -38 -5 -52 -26 -20 -16 25 -14 47 6 47 5 0 14 -12
20 -27z m119 -10 c-18 -21 -46 -44 -62 -51 l-30 -13 20 28 c27 38 53 60 77 66
11 2 22 5 24 6 1 0 -12 -16 -29 -36z m328 15 c-7 -19 -38 -22 -38 -4 0 10 9
16 21 16 12 0 19 -5 17 -12z m-568 -12 c0 -3 -4 -8 -10 -11 -5 -3 -10 -1 -10
4 0 6 5 11 10 11 6 0 10 -2 10 -4z m100 -47 c0 -20 -19 -17 -34 6 -23 34 -9
56 16 26 10 -13 18 -27 18 -32z m539 30 c25 -15 31 -23 21 -29 -10 -6 -57 8
-89 27 -7 4 11 23 22 23 7 0 27 -9 46 -21z m-204 -9 c-10 -11 -22 -17 -28 -13
-6 3 -7 1 -3 -5 4 -7 -13 -20 -44 -33 -28 -12 -49 -24 -46 -26 2 -3 18 3 36
12 18 9 34 14 37 11 8 -7 -137 -78 -150 -73 -7 3 5 12 26 21 39 17 51 32 17
21 -32 -10 -23 5 13 20 23 11 27 14 12 15 -11 0 16 16 60 35 95 41 93 40 70
15z m98 -6 c-6 -16 -6 -16 -27 -8 -13 5 -14 10 -6 20 14 16 41 7 33 -12z
m-568 -4 c-3 -5 -11 -10 -16 -10 -6 0 -7 5 -4 10 3 6 11 10 16 10 6 0 7 -4 4
-10z m90 -20 c22 -42 7 -59 -16 -20 -11 17 -17 35 -14 41 9 14 13 11 30 -21z
m568 -21 c-14 -14 -83 20 -76 37 4 11 14 9 45 -7 26 -13 37 -24 31 -30z m-392
2 c-19 -27 -61 -48 -61 -31 0 4 9 10 21 13 12 3 18 10 14 16 -5 9 19 26 43 30
2 1 -6 -12 -17 -28z m272 14 c1 -5 -6 -11 -15 -13 -11 -2 -18 3 -18 13 0 17
30 18 33 0z m-573 -20 c-7 -9 -15 -13 -17 -11 -7 7 7 26 19 26 6 0 6 -6 -2
-15z m639 -4 c32 -17 33 -19 14 -25 -20 -7 -73 11 -73 24 0 8 11 20 19 20 3
-1 21 -9 40 -19z m-550 -22 c15 -44 2 -57 -21 -20 -18 28 -18 51 2 51 4 0 13
-14 19 -31z m140 17 c-2 -2 -15 -9 -29 -15 -24 -11 -24 -11 -6 3 16 13 49 24
35 12z m304 -27 c-17 -17 -37 -1 -22 17 8 10 15 12 23 4 7 -7 7 -13 -1 -21z
m-603 1 c0 -5 -7 -10 -16 -10 -8 0 -12 5 -9 10 3 6 10 10 16 10 5 0 9 -4 9
-10z m45 0 c-3 -5 -11 -10 -16 -10 -6 0 -7 5 -4 10 3 6 11 10 16 10 6 0 7 -4
4 -10z m89 -47 c10 -32 -6 -29 -25 5 -19 33 -14 64 6 35 7 -10 15 -28 19 -40z
m133 33 c-10 -8 -17 -18 -16 -23 1 -4 -13 -16 -32 -26 -32 -18 -25 -9 18 21
17 12 17 13 0 8 -25 -8 -11 13 17 24 30 12 34 11 13 -4z m73 9 c0 -2 -13 -11
-30 -20 -16 -9 -30 -12 -30 -7 0 5 10 14 23 20 25 12 37 14 37 7z m330 -10
c32 -17 41 -29 13 -18 -11 4 -14 3 -9 -5 9 -15 4 -15 -29 0 -25 11 -30 19 -18
31 9 9 10 9 43 -8z m-185 -4 c-7 -13 -67 -42 -73 -37 -2 3 13 14 35 25 44 24
46 24 38 12z m95 -10 c0 -13 -12 -20 -25 -14 -8 2 -11 11 -9 18 6 14 34 10 34
-4z m-560 -5 c0 -2 -7 -7 -16 -10 -8 -3 -12 -2 -9 4 6 10 25 14 25 6z m81 -38
c12 -22 5 -23 -15 -2 -9 8 -16 23 -16 32 0 18 6 12 31 -30z m539 17 c14 -8 19
-14 12 -15 -7 0 -10 -5 -6 -11 3 -6 -8 -3 -25 6 -18 9 -29 20 -26 25 8 13 15
12 45 -5z m-185 -5 c-3 -5 -23 -17 -43 -26 -20 -10 -41 -20 -47 -22 -30 -15
11 14 47 33 52 28 51 27 43 15z m-169 -9 c-6 -9 -46 -22 -46 -15 0 3 10 9 23
14 29 11 29 11 23 1z m94 -6 c-14 -8 -29 -14 -35 -14 -5 0 1 6 15 14 14 8 30
14 35 14 6 0 -1 -6 -15 -14z m161 2 c-1 -12 -15 -9 -19 4 -3 6 1 10 8 8 6 -3
11 -8 11 -12z m1140 -26 c236 -91 432 -369 520 -737 66 -279 66 -622 0 -921
-92 -413 -322 -743 -588 -843 -73 -28 -201 -37 -274 -20 -90 21 -202 85 -279
160 -230 226 -359 602 -360 1053 -1 641 277 1189 670 1319 77 25 232 20 311
-11z m-1616 -21 c9 -17 11 -30 5 -30 -5 0 -10 6 -10 14 0 8 -7 22 -16 30 -8 9
-11 16 -5 16 6 0 17 -13 26 -30z m360 14 c-24 -19 -144 -80 -132 -68 9 9 139
83 147 83 3 0 -4 -7 -15 -15z m-156 2 c-2 -2 -15 -9 -29 -15 -24 -11 -24 -11
-6 3 16 13 49 24 35 12z m-79 -10 c0 -2 -7 -7 -16 -10 -8 -3 -12 -2 -9 4 6 10
25 14 25 6z m155 -6 c-3 -5 -11 -10 -16 -10 -6 0 -7 5 -4 10 3 6 11 10 16 10
6 0 7 -4 4 -10z m170 1 c3 -5 2 -12 -3 -15 -5 -3 -9 1 -9 9 0 17 3 19 12 6z
m-625 -861 c-8 -5 -19 -10 -25 -10 -5 0 -3 5 5 10 8 5 20 10 25 10 6 0 3 -5
-5 -10z m60 -4 c0 -2 -7 -7 -16 -10 -8 -3 -12 -2 -9 4 6 10 25 14 25 6z m90 0
c0 -3 -4 -8 -10 -11 -5 -3 -10 -1 -10 4 0 6 5 11 10 11 6 0 10 -2 10 -4z
m-150 -30 c0 -2 -7 -7 -16 -10 -8 -3 -12 -2 -9 4 6 10 25 14 25 6z m46 -32
c-11 -7 -22 -12 -25 -9 -2 3 4 12 15 19 10 8 21 12 24 9 3 -2 -4 -11 -14 -19z
m123 23 c-2 -1 -15 -11 -29 -22 l-25 -20 19 23 c11 12 24 22 29 22 6 0 8 -1 6
-3z m16 -36 c-3 -6 -14 -11 -23 -11 -13 0 -13 2 4 14 21 15 30 14 19 -3z
m-333 -45 c8 -16 4 -15 -16 6 -14 15 -26 30 -26 34 0 11 31 -18 42 -40z m193
15 c-3 -6 -11 -11 -16 -11 -5 0 -4 6 3 14 14 16 24 13 13 -3z m-67 -5 c-7 -8
-15 -12 -17 -11 -5 6 10 25 20 25 5 0 4 -6 -3 -14z m-148 -38 c0 -6 -6 -5 -15
2 -8 7 -15 14 -15 16 0 2 7 1 15 -2 8 -4 15 -11 15 -16z m160 2 c0 -5 -7 -10
-15 -10 -8 0 -15 -5 -15 -12 0 -6 -3 -8 -7 -4 -5 4 1 14 11 22 23 17 26 17 26
4z m54 -4 c-5 -14 -34 -31 -34 -20 0 8 24 33 32 34 4 0 5 -6 2 -14z m96 -7 c0
-5 -4 -7 -10 -4 -5 3 -10 1 -10 -6 0 -7 -3 -10 -6 -6 -8 7 4 27 17 27 5 0 9
-5 9 -11z m50 -13 c0 -2 -8 -10 -17 -17 -16 -13 -17 -12 -4 4 13 16 21 21 21
13z m-210 -31 c-7 -8 -17 -15 -23 -15 -6 0 -2 8 9 19 22 21 33 19 14 -4z m170
0 c0 -2 -10 -9 -22 -15 -22 -11 -22 -10 -4 4 21 17 26 19 26 11z m-110 -14 c0
-5 -7 -12 -16 -15 -14 -5 -15 -4 -4 9 14 17 20 19 20 6z m130 -11 c0 -5 -5
-10 -11 -10 -5 0 -7 5 -4 10 3 6 8 10 11 10 2 0 4 -4 4 -10z m-46 -34 c-10 -8
-21 -12 -23 -10 -3 2 4 11 15 18 10 8 21 12 23 10 3 -2 -4 -11 -15 -18z m71 5
c-3 -6 -14 -10 -23 -10 -15 1 -15 2 1 6 9 2 17 9 17 15 0 6 3 9 6 5 3 -3 3
-10 -1 -16z m-359 -23 l29 -33 -32 29 c-31 28 -38 36 -30 36 2 0 16 -15 33
-32z m134 12 c-8 -5 -17 -7 -19 -4 -3 3 1 9 9 14 8 5 17 7 19 4 3 -3 -1 -9 -9
-14z m60 0 c-20 -13 -33 -13 -25 0 3 6 14 10 23 10 15 0 15 -2 2 -10z m120
-17 c0 -5 -12 -17 -27 -27 -25 -18 -24 -9 2 21 11 14 25 17 25 6z m-170 -8 c0
-2 -10 -9 -22 -15 -22 -11 -22 -10 -4 4 21 17 26 19 26 11z m45 -15 c-10 -11
-21 -17 -24 -14 -3 3 3 12 13 20 28 20 32 17 11 -6z m175 13 c0 -5 -17 -21
-38 -37 l-37 -28 35 35 c38 39 40 41 40 30z m-365 -23 c10 -11 16 -20 13 -20
-3 0 -13 9 -23 20 -10 11 -16 20 -13 20 3 0 13 -9 23 -20z m45 -90 c0 -4 -20
12 -45 34 -25 23 -45 44 -45 48 0 3 20 -13 45 -35 25 -22 45 -44 45 -47z m84
56 c-10 -8 -21 -12 -24 -9 -3 2 4 11 14 19 11 7 22 12 25 9 2 -3 -4 -12 -15
-19z m227 -9 c-10 -9 -11 -8 -5 6 3 10 9 15 12 12 3 -3 0 -11 -7 -18z m-79
-19 c-7 -7 -12 -8 -12 -2 0 6 3 14 7 17 3 4 9 5 12 2 2 -3 -1 -11 -7 -17z
m-292 -30 c0 -6 -6 -5 -15 2 -8 7 -15 14 -15 16 0 2 7 1 15 -2 8 -4 15 -11 15
-16z m147 -5 c-9 -9 -19 -14 -22 -11 -3 3 2 13 11 22 9 9 19 14 22 11 3 -3 -2
-13 -11 -22z m53 -8 c-7 -9 -15 -13 -17 -11 -6 6 20 36 26 30 2 -2 -2 -10 -9
-19z m-200 -38 c0 -5 -7 -2 -15 7 -8 8 -15 20 -15 27 0 14 29 -20 30 -34z m31
16 c13 -16 12 -17 -3 -4 -10 7 -18 15 -18 17 0 8 8 3 21 -13z m129 -3 c0 -5
-7 -10 -16 -10 -8 0 -13 -4 -9 -9 3 -5 1 -12 -5 -16 -5 -3 -10 1 -10 9 0 8 8
20 18 25 22 13 22 13 22 1z m-170 -45 c14 -19 14 -19 -2 -6 -10 7 -18 18 -18
24 0 6 1 8 3 6 1 -2 9 -13 17 -24z m45 -4 c-6 -5 -25 10 -25 20 0 5 6 4 14 -3
8 -7 12 -15 11 -17z m325 5 c0 -2 -7 -7 -16 -10 -8 -3 -12 -2 -9 4 6 10 25 14
25 6z"/>
<path d="M1854 3575 c-10 -8 -14 -15 -8 -15 6 0 17 7 24 15 16 19 9 19 -16 0z"/>
<path d="M2678 3134 c-9 -9 -31 -19 -49 -23 -18 -3 -35 -13 -37 -20 -4 -11 4
-12 33 -7 40 8 57 20 68 49 8 21 6 21 -15 1z"/>
<path d="M3305 2700 c9 -31 25 -50 25 -29 0 7 -8 23 -16 34 -16 19 -16 19 -9
-5z"/>
<path d="M3277 2636 l-37 -11 35 -19 c28 -15 34 -24 29 -40 -5 -16 -4 -18 6
-9 7 6 18 22 24 35 9 18 21 24 59 26 59 4 62 22 5 22 -24 0 -52 2 -63 4 -11 3
-37 -1 -58 -8z"/>
<path d="M2841 2624 c0 -11 3 -14 6 -6 3 7 2 16 -1 19 -3 4 -6 -2 -5 -13z"/>
<path d="M2849 2583 c-6 -41 18 -93 43 -93 17 0 19 18 9 93 -1 4 -12 7 -26 7
-14 0 -26 -3 -26 -7z"/>
<path d="M2557 2413 c-6 -10 67 -68 115 -92 51 -26 67 21 22 66 -22 22 -30 24
-71 18 -31 -4 -48 -3 -53 5 -4 7 -10 8 -13 3z"/>
<path d="M2810 2328 c-28 -47 -26 -92 6 -112 34 -23 59 -17 59 14 1 14 4 40 9
57 18 74 -36 103 -74 41z"/>
<path d="M2420 2325 c9 -11 11 -42 8 -109 l-5 -94 61 -12 60 -12 30 34 30 33
-32 3 c-40 4 -42 22 -2 22 17 0 30 4 30 9 0 9 -174 141 -186 141 -3 0 -1 -7 6
-15z"/>
<path d="M3380 2234 c0 -10 12 -14 37 -14 42 0 40 7 -6 20 -24 7 -31 6 -31 -6z"/>
<path d="M2817 2169 c-32 -19 -57 -88 -57 -161 0 -106 35 -168 95 -168 102 0
144 227 59 321 -19 21 -68 25 -97 8z m133 -149 c0 -26 -4 -27 -98 -35 l-82 -6
0 25 c0 21 4 25 31 24 17 -1 33 -7 36 -15 3 -7 10 -13 15 -13 6 0 6 6 -1 14
-13 16 -1 20 67 24 25 1 32 -2 32 -18z"/>
<path d="M2967 2173 c-10 -10 -8 -63 4 -105 7 -27 16 -38 29 -38 40 0 65 82
40 131 -10 19 -59 27 -73 12z"/>
<path d="M2667 2149 c-18 -25 -23 -114 -9 -137 5 -8 16 -10 28 -6 61 22 73 83
26 135 l-29 32 -16 -24z"/>
<path d="M2430 1979 c0 -5 9 -9 20 -9 11 0 20 2 20 4 0 2 -9 6 -20 9 -11 3
-20 1 -20 -4z"/>
<path d="M2420 1903 c0 -16 4 -23 8 -18 4 6 18 11 32 12 75 5 146 16 155 24 5
5 -33 9 -93 9 l-102 0 0 -27z"/>
<path d="M2922 1856 c-10 -14 -25 -39 -32 -56 -12 -28 -11 -33 10 -55 28 -30
51 -32 73 -7 24 26 21 73 -7 111 l-24 32 -20 -25z"/>
<path d="M2715 1857 c-26 -19 -17 -110 14 -140 22 -22 22 -22 37 -3 8 11 14
30 14 42 0 13 4 34 9 47 19 48 -31 85 -74 54z"/>
<path d="M2437 1810 c3 -11 7 -20 9 -20 2 0 4 9 4 20 0 11 -4 20 -9 20 -5 0
-7 -9 -4 -20z"/>
<path d="M2509 1798 c-6 -12 -16 -26 -21 -29 -6 -4 4 -21 21 -38 l31 -32 30
33 c34 37 40 78 13 78 -10 0 -28 3 -40 6 -16 4 -25 0 -34 -18z"/>
<path d="M2613 1523 c-28 -52 -30 -60 -17 -77 8 -11 14 -16 15 -10 1 5 4 -2 8
-16 4 -15 15 -26 27 -28 18 -3 24 6 38 59 15 51 16 66 5 85 -7 13 -18 24 -25
24 -7 0 -14 5 -16 10 -2 6 -17 -16 -35 -47z"/>
<path d="M3216 1355 c-3 -9 0 -15 9 -15 9 0 12 6 9 15 -4 8 -7 15 -9 15 -2 0
-5 -7 -9 -15z"/>
<path d="M3031 1305 c1 -19 18 -51 18 -35 0 8 -4 22 -9 30 -5 8 -9 11 -9 5z"/>
<path d="M2240 1285 c0 -4 8 -20 17 -38 16 -30 18 -31 21 -9 2 13 -2 30 -8 38
-12 14 -30 19 -30 9z"/>
<path d="M2526 1176 c-3 -13 -9 -32 -12 -43 -5 -12 -4 -15 3 -8 11 10 28 75
20 75 -3 0 -8 -11 -11 -24z"/>
<path d="M3006 1124 c7 -36 -15 -64 -49 -64 -22 -1 -22 -1 -2 -16 56 -41 71
-64 42 -64 -8 0 -22 -9 -31 -19 -17 -19 -17 -20 16 -23 18 -2 49 2 68 8 19 6
42 9 50 6 30 -10 2 8 -36 23 l-39 15 47 -4 c41 -3 46 -1 39 13 -4 9 -11 37
-14 63 -4 26 -12 57 -19 68 -14 22 -43 27 -54 9 -4 -8 -9 -7 -15 2 -6 9 -7 2
-3 -17z"/>
<path d="M2937 1006 c10 -13 24 -21 30 -19 9 4 5 11 -11 24 -33 26 -41 24 -19
-5z"/>
<path d="M2800 960 c-25 -10 -57 -19 -72 -19 -21 -1 -28 -6 -28 -21 0 -11 7
-23 15 -26 21 -8 19 -24 -2 -24 -15 -1 -16 -2 -3 -9 31 -17 71 -22 69 -9 -5
37 3 48 41 59 47 14 63 30 54 53 -8 20 -18 20 -74 -4z"/>
<path d="M2058 3713 c7 -3 16 -2 19 1 4 3 -2 6 -13 5 -11 0 -14 -3 -6 -6z"/>
<path d="M2003 3688 c-17 -6 -34 -17 -37 -25 -4 -8 -3 -13 1 -11 5 2 25 12 46
21 56 26 51 34 -10 15z"/>
</g>
</svg>
